<mxfile host="app.diagrams.net" modified="2022-09-24T04:29:43.107Z" agent="5.0 (Windows NT 10.0; Win64; x64) AppleWebKit/537.36 (KHTML, like Gecko) Chrome/104.0.5112.102 Safari/537.36 OPR/90.0.4480.84" etag="Wt8ecqID7Ft7r4-lZ32n" version="20.3.6" type="github">
  <diagram id="C5RBs43oDa-KdzZeNtuy" name="Page-1">
    <mxGraphModel dx="1422" dy="764" grid="1" gridSize="10" guides="1" tooltips="1" connect="1" arrows="1" fold="1" page="1" pageScale="1" pageWidth="827" pageHeight="1169" math="0" shadow="0">
      <root>
        <object label="" id="WIyWlLk6GJQsqaUBKTNV-0">
          <mxCell />
        </object>
        <mxCell id="WIyWlLk6GJQsqaUBKTNV-1" parent="WIyWlLk6GJQsqaUBKTNV-0" />
        <mxCell id="kWTvbe_bPC2LMQ7CIQXw-2" style="edgeStyle=orthogonalEdgeStyle;rounded=0;orthogonalLoop=1;jettySize=auto;html=1;entryX=0.5;entryY=0;entryDx=0;entryDy=0;entryPerimeter=0;" parent="WIyWlLk6GJQsqaUBKTNV-1" source="kWTvbe_bPC2LMQ7CIQXw-0" target="kWTvbe_bPC2LMQ7CIQXw-4" edge="1">
          <mxGeometry relative="1" as="geometry" />
        </mxCell>
        <mxCell id="kWTvbe_bPC2LMQ7CIQXw-0" value="Mulai" style="strokeWidth=2;html=1;shape=mxgraph.flowchart.terminator;whiteSpace=wrap;" parent="WIyWlLk6GJQsqaUBKTNV-1" vertex="1">
          <mxGeometry x="130" y="40" width="100" height="60" as="geometry" />
        </mxCell>
        <mxCell id="kWTvbe_bPC2LMQ7CIQXw-7" style="edgeStyle=orthogonalEdgeStyle;rounded=0;orthogonalLoop=1;jettySize=auto;html=1;entryX=1;entryY=0.75;entryDx=0;entryDy=0;" parent="WIyWlLk6GJQsqaUBKTNV-1" source="kWTvbe_bPC2LMQ7CIQXw-1" target="kWTvbe_bPC2LMQ7CIQXw-8" edge="1">
          <mxGeometry relative="1" as="geometry">
            <mxPoint x="395" y="360" as="targetPoint" />
            <Array as="points">
              <mxPoint x="410" y="360" />
            </Array>
          </mxGeometry>
        </mxCell>
        <mxCell id="kWTvbe_bPC2LMQ7CIQXw-1" value="Masukan Data Barang&lt;br&gt;Tbl_barang" style="shape=parallelogram;html=1;strokeWidth=2;perimeter=parallelogramPerimeter;whiteSpace=wrap;rounded=1;arcSize=12;size=0.23;" parent="WIyWlLk6GJQsqaUBKTNV-1" vertex="1">
          <mxGeometry x="310" y="195" width="200" height="60" as="geometry" />
        </mxCell>
        <mxCell id="kWTvbe_bPC2LMQ7CIQXw-15" style="edgeStyle=orthogonalEdgeStyle;rounded=0;orthogonalLoop=1;jettySize=auto;html=1;" parent="WIyWlLk6GJQsqaUBKTNV-1" source="kWTvbe_bPC2LMQ7CIQXw-3" target="kWTvbe_bPC2LMQ7CIQXw-14" edge="1">
          <mxGeometry relative="1" as="geometry" />
        </mxCell>
        <mxCell id="kWTvbe_bPC2LMQ7CIQXw-3" value="Masukan Data Barang Masuk&lt;br&gt;Tbl_barang_masuk" style="shape=parallelogram;html=1;strokeWidth=2;perimeter=parallelogramPerimeter;whiteSpace=wrap;rounded=1;arcSize=12;size=0.23;" parent="WIyWlLk6GJQsqaUBKTNV-1" vertex="1">
          <mxGeometry x="860" y="155" width="230" height="90" as="geometry" />
        </mxCell>
        <mxCell id="kWTvbe_bPC2LMQ7CIQXw-5" style="edgeStyle=orthogonalEdgeStyle;rounded=0;orthogonalLoop=1;jettySize=auto;html=1;entryX=0;entryY=0.5;entryDx=0;entryDy=0;" parent="WIyWlLk6GJQsqaUBKTNV-1" source="kWTvbe_bPC2LMQ7CIQXw-4" target="kWTvbe_bPC2LMQ7CIQXw-1" edge="1">
          <mxGeometry relative="1" as="geometry" />
        </mxCell>
        <mxCell id="kWTvbe_bPC2LMQ7CIQXw-4" value="DB Stok_Barang" style="strokeWidth=2;html=1;shape=mxgraph.flowchart.database;whiteSpace=wrap;" parent="WIyWlLk6GJQsqaUBKTNV-1" vertex="1">
          <mxGeometry x="124" y="170" width="112" height="110" as="geometry" />
        </mxCell>
        <mxCell id="kWTvbe_bPC2LMQ7CIQXw-6" value="Selesai" style="strokeWidth=2;html=1;shape=mxgraph.flowchart.terminator;whiteSpace=wrap;" parent="WIyWlLk6GJQsqaUBKTNV-1" vertex="1">
          <mxGeometry x="130" y="440" width="100" height="60" as="geometry" />
        </mxCell>
        <mxCell id="kWTvbe_bPC2LMQ7CIQXw-9" style="edgeStyle=orthogonalEdgeStyle;rounded=0;orthogonalLoop=1;jettySize=auto;html=1;entryX=0.5;entryY=0;entryDx=0;entryDy=0;entryPerimeter=0;" parent="WIyWlLk6GJQsqaUBKTNV-1" source="kWTvbe_bPC2LMQ7CIQXw-8" target="kWTvbe_bPC2LMQ7CIQXw-6" edge="1">
          <mxGeometry relative="1" as="geometry" />
        </mxCell>
        <mxCell id="kWTvbe_bPC2LMQ7CIQXw-8" value="Simpan Masukkan" style="shape=parallelogram;html=1;strokeWidth=2;perimeter=parallelogramPerimeter;whiteSpace=wrap;rounded=1;arcSize=12;size=0.23;" parent="WIyWlLk6GJQsqaUBKTNV-1" vertex="1">
          <mxGeometry x="90" y="320" width="180" height="60" as="geometry" />
        </mxCell>
        <mxCell id="kWTvbe_bPC2LMQ7CIQXw-12" style="edgeStyle=orthogonalEdgeStyle;rounded=0;orthogonalLoop=1;jettySize=auto;html=1;entryX=0.5;entryY=0;entryDx=0;entryDy=0;entryPerimeter=0;" parent="WIyWlLk6GJQsqaUBKTNV-1" source="kWTvbe_bPC2LMQ7CIQXw-10" target="kWTvbe_bPC2LMQ7CIQXw-11" edge="1">
          <mxGeometry relative="1" as="geometry" />
        </mxCell>
        <mxCell id="kWTvbe_bPC2LMQ7CIQXw-10" value="Mulai" style="strokeWidth=2;html=1;shape=mxgraph.flowchart.terminator;whiteSpace=wrap;" parent="WIyWlLk6GJQsqaUBKTNV-1" vertex="1">
          <mxGeometry x="650" y="30" width="100" height="60" as="geometry" />
        </mxCell>
        <mxCell id="kWTvbe_bPC2LMQ7CIQXw-13" style="edgeStyle=orthogonalEdgeStyle;rounded=0;orthogonalLoop=1;jettySize=auto;html=1;" parent="WIyWlLk6GJQsqaUBKTNV-1" source="kWTvbe_bPC2LMQ7CIQXw-11" target="kWTvbe_bPC2LMQ7CIQXw-3" edge="1">
          <mxGeometry relative="1" as="geometry" />
        </mxCell>
        <mxCell id="kWTvbe_bPC2LMQ7CIQXw-11" value="DB Stok_Barang" style="strokeWidth=2;html=1;shape=mxgraph.flowchart.database;whiteSpace=wrap;" parent="WIyWlLk6GJQsqaUBKTNV-1" vertex="1">
          <mxGeometry x="644" y="145" width="112" height="110" as="geometry" />
        </mxCell>
        <mxCell id="kWTvbe_bPC2LMQ7CIQXw-17" style="edgeStyle=orthogonalEdgeStyle;rounded=0;orthogonalLoop=1;jettySize=auto;html=1;entryX=1;entryY=0.5;entryDx=0;entryDy=0;" parent="WIyWlLk6GJQsqaUBKTNV-1" source="kWTvbe_bPC2LMQ7CIQXw-14" target="kWTvbe_bPC2LMQ7CIQXw-16" edge="1">
          <mxGeometry relative="1" as="geometry" />
        </mxCell>
        <mxCell id="kWTvbe_bPC2LMQ7CIQXw-14" value="Simpan Masukkan" style="shape=parallelogram;html=1;strokeWidth=2;perimeter=parallelogramPerimeter;whiteSpace=wrap;rounded=1;arcSize=12;size=0.23;" parent="WIyWlLk6GJQsqaUBKTNV-1" vertex="1">
          <mxGeometry x="885" y="300" width="180" height="60" as="geometry" />
        </mxCell>
        <mxCell id="kWTvbe_bPC2LMQ7CIQXw-19" style="edgeStyle=orthogonalEdgeStyle;rounded=0;orthogonalLoop=1;jettySize=auto;html=1;entryX=0.5;entryY=0;entryDx=0;entryDy=0;entryPerimeter=0;" parent="WIyWlLk6GJQsqaUBKTNV-1" source="kWTvbe_bPC2LMQ7CIQXw-16" target="kWTvbe_bPC2LMQ7CIQXw-18" edge="1">
          <mxGeometry relative="1" as="geometry" />
        </mxCell>
        <mxCell id="kWTvbe_bPC2LMQ7CIQXw-16" value="Jumlah Barang bertambah di&lt;br&gt;Tbl_barang" style="shape=parallelogram;html=1;strokeWidth=2;perimeter=parallelogramPerimeter;whiteSpace=wrap;rounded=1;arcSize=12;size=0.23;" parent="WIyWlLk6GJQsqaUBKTNV-1" vertex="1">
          <mxGeometry x="590" y="290" width="220" height="80" as="geometry" />
        </mxCell>
        <mxCell id="kWTvbe_bPC2LMQ7CIQXw-18" value="Selesai" style="strokeWidth=2;html=1;shape=mxgraph.flowchart.terminator;whiteSpace=wrap;" parent="WIyWlLk6GJQsqaUBKTNV-1" vertex="1">
          <mxGeometry x="650" y="440" width="100" height="60" as="geometry" />
        </mxCell>
        <mxCell id="kWTvbe_bPC2LMQ7CIQXw-20" style="edgeStyle=orthogonalEdgeStyle;rounded=0;orthogonalLoop=1;jettySize=auto;html=1;" parent="WIyWlLk6GJQsqaUBKTNV-1" source="kWTvbe_bPC2LMQ7CIQXw-21" target="kWTvbe_bPC2LMQ7CIQXw-27" edge="1">
          <mxGeometry relative="1" as="geometry" />
        </mxCell>
        <mxCell id="kWTvbe_bPC2LMQ7CIQXw-21" value="Masukan Data Barang Keluar&lt;br&gt;Tbl_barang_keluar" style="shape=parallelogram;html=1;strokeWidth=2;perimeter=parallelogramPerimeter;whiteSpace=wrap;rounded=1;arcSize=12;size=0.23;" parent="WIyWlLk6GJQsqaUBKTNV-1" vertex="1">
          <mxGeometry x="1470" y="155" width="230" height="90" as="geometry" />
        </mxCell>
        <mxCell id="kWTvbe_bPC2LMQ7CIQXw-22" style="edgeStyle=orthogonalEdgeStyle;rounded=0;orthogonalLoop=1;jettySize=auto;html=1;entryX=0.5;entryY=0;entryDx=0;entryDy=0;entryPerimeter=0;" parent="WIyWlLk6GJQsqaUBKTNV-1" source="kWTvbe_bPC2LMQ7CIQXw-23" target="kWTvbe_bPC2LMQ7CIQXw-25" edge="1">
          <mxGeometry relative="1" as="geometry" />
        </mxCell>
        <mxCell id="kWTvbe_bPC2LMQ7CIQXw-23" value="Mulai" style="strokeWidth=2;html=1;shape=mxgraph.flowchart.terminator;whiteSpace=wrap;" parent="WIyWlLk6GJQsqaUBKTNV-1" vertex="1">
          <mxGeometry x="1260" y="30" width="100" height="60" as="geometry" />
        </mxCell>
        <mxCell id="kWTvbe_bPC2LMQ7CIQXw-24" style="edgeStyle=orthogonalEdgeStyle;rounded=0;orthogonalLoop=1;jettySize=auto;html=1;" parent="WIyWlLk6GJQsqaUBKTNV-1" source="kWTvbe_bPC2LMQ7CIQXw-25" target="kWTvbe_bPC2LMQ7CIQXw-21" edge="1">
          <mxGeometry relative="1" as="geometry" />
        </mxCell>
        <mxCell id="kWTvbe_bPC2LMQ7CIQXw-25" value="DB Stok_Barang" style="strokeWidth=2;html=1;shape=mxgraph.flowchart.database;whiteSpace=wrap;" parent="WIyWlLk6GJQsqaUBKTNV-1" vertex="1">
          <mxGeometry x="1254" y="145" width="112" height="110" as="geometry" />
        </mxCell>
        <mxCell id="kWTvbe_bPC2LMQ7CIQXw-26" style="edgeStyle=orthogonalEdgeStyle;rounded=0;orthogonalLoop=1;jettySize=auto;html=1;entryX=1;entryY=0.5;entryDx=0;entryDy=0;" parent="WIyWlLk6GJQsqaUBKTNV-1" source="kWTvbe_bPC2LMQ7CIQXw-27" target="kWTvbe_bPC2LMQ7CIQXw-29" edge="1">
          <mxGeometry relative="1" as="geometry" />
        </mxCell>
        <mxCell id="kWTvbe_bPC2LMQ7CIQXw-27" value="Simpan Masukkan" style="shape=parallelogram;html=1;strokeWidth=2;perimeter=parallelogramPerimeter;whiteSpace=wrap;rounded=1;arcSize=12;size=0.23;" parent="WIyWlLk6GJQsqaUBKTNV-1" vertex="1">
          <mxGeometry x="1495" y="300" width="180" height="60" as="geometry" />
        </mxCell>
        <mxCell id="kWTvbe_bPC2LMQ7CIQXw-28" style="edgeStyle=orthogonalEdgeStyle;rounded=0;orthogonalLoop=1;jettySize=auto;html=1;entryX=0.5;entryY=0;entryDx=0;entryDy=0;entryPerimeter=0;" parent="WIyWlLk6GJQsqaUBKTNV-1" source="kWTvbe_bPC2LMQ7CIQXw-29" target="kWTvbe_bPC2LMQ7CIQXw-30" edge="1">
          <mxGeometry relative="1" as="geometry" />
        </mxCell>
        <mxCell id="kWTvbe_bPC2LMQ7CIQXw-29" value="Jumlah Barang berkurang di&lt;br&gt;Tbl_barang" style="shape=parallelogram;html=1;strokeWidth=2;perimeter=parallelogramPerimeter;whiteSpace=wrap;rounded=1;arcSize=12;size=0.23;" parent="WIyWlLk6GJQsqaUBKTNV-1" vertex="1">
          <mxGeometry x="1200" y="290" width="220" height="80" as="geometry" />
        </mxCell>
        <mxCell id="kWTvbe_bPC2LMQ7CIQXw-30" value="Selesai" style="strokeWidth=2;html=1;shape=mxgraph.flowchart.terminator;whiteSpace=wrap;" parent="WIyWlLk6GJQsqaUBKTNV-1" vertex="1">
          <mxGeometry x="1260" y="440" width="100" height="60" as="geometry" />
        </mxCell>
        <mxCell id="v8m7cwNHLDLbDDxXpmGs-0" value="Stok Barang" style="swimlane;html=1;childLayout=stackLayout;resizeParent=1;resizeParentMax=0;startSize=20;" vertex="1" parent="WIyWlLk6GJQsqaUBKTNV-1">
          <mxGeometry x="70" y="600" width="510" height="700" as="geometry" />
        </mxCell>
        <mxCell id="v8m7cwNHLDLbDDxXpmGs-1" value="Supplier" style="swimlane;html=1;startSize=20;" vertex="1" parent="v8m7cwNHLDLbDDxXpmGs-0">
          <mxGeometry y="20" width="230" height="680" as="geometry" />
        </mxCell>
        <mxCell id="v8m7cwNHLDLbDDxXpmGs-7" style="edgeStyle=orthogonalEdgeStyle;rounded=0;orthogonalLoop=1;jettySize=auto;html=1;entryX=0.5;entryY=0;entryDx=0;entryDy=0;" edge="1" parent="v8m7cwNHLDLbDDxXpmGs-1" source="v8m7cwNHLDLbDDxXpmGs-4" target="v8m7cwNHLDLbDDxXpmGs-5">
          <mxGeometry relative="1" as="geometry" />
        </mxCell>
        <mxCell id="v8m7cwNHLDLbDDxXpmGs-4" value="Mulai" style="strokeWidth=2;html=1;shape=mxgraph.flowchart.terminator;whiteSpace=wrap;" vertex="1" parent="v8m7cwNHLDLbDDxXpmGs-1">
          <mxGeometry x="65" y="40" width="100" height="40" as="geometry" />
        </mxCell>
        <mxCell id="v8m7cwNHLDLbDDxXpmGs-9" style="edgeStyle=orthogonalEdgeStyle;rounded=0;orthogonalLoop=1;jettySize=auto;html=1;entryX=0.5;entryY=0;entryDx=0;entryDy=0;" edge="1" parent="v8m7cwNHLDLbDDxXpmGs-1" source="v8m7cwNHLDLbDDxXpmGs-5" target="v8m7cwNHLDLbDDxXpmGs-23">
          <mxGeometry relative="1" as="geometry">
            <mxPoint x="115" y="240" as="targetPoint" />
          </mxGeometry>
        </mxCell>
        <mxCell id="v8m7cwNHLDLbDDxXpmGs-5" value="Tambah Barang" style="shape=parallelogram;html=1;strokeWidth=2;perimeter=parallelogramPerimeter;whiteSpace=wrap;rounded=1;arcSize=12;size=0.23;" vertex="1" parent="v8m7cwNHLDLbDDxXpmGs-1">
          <mxGeometry x="45" y="130" width="140" height="60" as="geometry" />
        </mxCell>
        <mxCell id="v8m7cwNHLDLbDDxXpmGs-13" style="edgeStyle=orthogonalEdgeStyle;rounded=0;orthogonalLoop=1;jettySize=auto;html=1;" edge="1" parent="v8m7cwNHLDLbDDxXpmGs-1" source="v8m7cwNHLDLbDDxXpmGs-10" target="v8m7cwNHLDLbDDxXpmGs-12">
          <mxGeometry relative="1" as="geometry" />
        </mxCell>
        <mxCell id="v8m7cwNHLDLbDDxXpmGs-10" value="Barang Masuk" style="shape=parallelogram;html=1;strokeWidth=2;perimeter=parallelogramPerimeter;whiteSpace=wrap;rounded=1;arcSize=12;size=0.23;" vertex="1" parent="v8m7cwNHLDLbDDxXpmGs-1">
          <mxGeometry x="45" y="350" width="140" height="60" as="geometry" />
        </mxCell>
        <mxCell id="v8m7cwNHLDLbDDxXpmGs-12" value="Selesai" style="strokeWidth=2;html=1;shape=mxgraph.flowchart.terminator;whiteSpace=wrap;" vertex="1" parent="v8m7cwNHLDLbDDxXpmGs-1">
          <mxGeometry x="65" y="460" width="100" height="40" as="geometry" />
        </mxCell>
        <mxCell id="v8m7cwNHLDLbDDxXpmGs-24" style="edgeStyle=orthogonalEdgeStyle;rounded=0;orthogonalLoop=1;jettySize=auto;html=1;entryX=0.5;entryY=0;entryDx=0;entryDy=0;" edge="1" parent="v8m7cwNHLDLbDDxXpmGs-1" source="v8m7cwNHLDLbDDxXpmGs-23" target="v8m7cwNHLDLbDDxXpmGs-10">
          <mxGeometry relative="1" as="geometry" />
        </mxCell>
        <mxCell id="v8m7cwNHLDLbDDxXpmGs-23" value="Transaksi" style="rounded=1;whiteSpace=wrap;html=1;absoluteArcSize=1;arcSize=14;strokeWidth=2;" vertex="1" parent="v8m7cwNHLDLbDDxXpmGs-1">
          <mxGeometry x="65" y="240" width="100" height="60" as="geometry" />
        </mxCell>
        <mxCell id="v8m7cwNHLDLbDDxXpmGs-2" value="Customer" style="swimlane;html=1;startSize=20;" vertex="1" parent="v8m7cwNHLDLbDDxXpmGs-0">
          <mxGeometry x="230" y="20" width="280" height="680" as="geometry" />
        </mxCell>
        <mxCell id="v8m7cwNHLDLbDDxXpmGs-15" value="Mulai" style="strokeWidth=2;html=1;shape=mxgraph.flowchart.terminator;whiteSpace=wrap;" vertex="1" parent="v8m7cwNHLDLbDDxXpmGs-2">
          <mxGeometry x="90" y="40" width="100" height="40" as="geometry" />
        </mxCell>
        <mxCell id="v8m7cwNHLDLbDDxXpmGs-17" value="Beli Barang" style="shape=parallelogram;html=1;strokeWidth=2;perimeter=parallelogramPerimeter;whiteSpace=wrap;rounded=1;arcSize=12;size=0.23;" vertex="1" parent="v8m7cwNHLDLbDDxXpmGs-2">
          <mxGeometry x="70" y="130" width="140" height="60" as="geometry" />
        </mxCell>
        <mxCell id="v8m7cwNHLDLbDDxXpmGs-14" style="edgeStyle=orthogonalEdgeStyle;rounded=0;orthogonalLoop=1;jettySize=auto;html=1;entryX=0.5;entryY=0;entryDx=0;entryDy=0;" edge="1" source="v8m7cwNHLDLbDDxXpmGs-15" target="v8m7cwNHLDLbDDxXpmGs-17" parent="v8m7cwNHLDLbDDxXpmGs-2">
          <mxGeometry relative="1" as="geometry" />
        </mxCell>
        <mxCell id="v8m7cwNHLDLbDDxXpmGs-16" style="edgeStyle=orthogonalEdgeStyle;rounded=0;orthogonalLoop=1;jettySize=auto;html=1;entryX=0.5;entryY=0;entryDx=0;entryDy=0;" edge="1" source="v8m7cwNHLDLbDDxXpmGs-17" target="v8m7cwNHLDLbDDxXpmGs-26" parent="v8m7cwNHLDLbDDxXpmGs-2">
          <mxGeometry relative="1" as="geometry">
            <mxPoint x="140" y="240" as="targetPoint" />
          </mxGeometry>
        </mxCell>
        <mxCell id="v8m7cwNHLDLbDDxXpmGs-21" value="Barang Keluar" style="shape=parallelogram;html=1;strokeWidth=2;perimeter=parallelogramPerimeter;whiteSpace=wrap;rounded=1;arcSize=12;size=0.23;" vertex="1" parent="v8m7cwNHLDLbDDxXpmGs-2">
          <mxGeometry x="70" y="350" width="140" height="60" as="geometry" />
        </mxCell>
        <mxCell id="v8m7cwNHLDLbDDxXpmGs-22" value="Selesai" style="strokeWidth=2;html=1;shape=mxgraph.flowchart.terminator;whiteSpace=wrap;" vertex="1" parent="v8m7cwNHLDLbDDxXpmGs-2">
          <mxGeometry x="90" y="460" width="100" height="40" as="geometry" />
        </mxCell>
        <mxCell id="v8m7cwNHLDLbDDxXpmGs-20" style="edgeStyle=orthogonalEdgeStyle;rounded=0;orthogonalLoop=1;jettySize=auto;html=1;" edge="1" source="v8m7cwNHLDLbDDxXpmGs-21" target="v8m7cwNHLDLbDDxXpmGs-22" parent="v8m7cwNHLDLbDDxXpmGs-2">
          <mxGeometry relative="1" as="geometry" />
        </mxCell>
        <mxCell id="v8m7cwNHLDLbDDxXpmGs-27" style="edgeStyle=orthogonalEdgeStyle;rounded=0;orthogonalLoop=1;jettySize=auto;html=1;entryX=0.5;entryY=0;entryDx=0;entryDy=0;" edge="1" parent="v8m7cwNHLDLbDDxXpmGs-2" source="v8m7cwNHLDLbDDxXpmGs-26" target="v8m7cwNHLDLbDDxXpmGs-21">
          <mxGeometry relative="1" as="geometry" />
        </mxCell>
        <mxCell id="v8m7cwNHLDLbDDxXpmGs-26" value="Transaksi" style="rounded=1;whiteSpace=wrap;html=1;absoluteArcSize=1;arcSize=14;strokeWidth=2;" vertex="1" parent="v8m7cwNHLDLbDDxXpmGs-2">
          <mxGeometry x="90" y="240" width="100" height="60" as="geometry" />
        </mxCell>
      </root>
    </mxGraphModel>
  </diagram>
</mxfile>
